<svg width="24" height="22" viewBox="0 0 24 22" fill="none" xmlns="http://www.w3.org/2000/svg">
<g style="mix-blend-mode:difference" filter="url(#filter0_df_2_6)">
<path d="M14 17H19V3H5V17H12V12H10V10H12V8.3458C12 7.00855 12.1392 6.52362 12.4007 6.03473C12.6622 5.54584 13.0458 5.16216 13.5347 4.9007C13.9174 4.69604 14.3922 4.57252 15.2217 4.51954C15.551 4.49851 15.9771 4.52533 16.5 4.6V6.5H16C15.0827 6.5 14.7042 6.54332 14.4779 6.66433C14.3376 6.73939 14.2394 6.83758 14.1643 6.97793C14.0433 7.20418 14 7.42853 14 8.3458V10H16.5L16 12H14V17ZM4 1H20C20.5523 1 21 1.44772 21 2V18C21 18.5523 20.5523 19 20 19H4C3.44772 19 3 18.5523 3 18V2C3 1.44772 3.44772 1 4 1Z" fill="#FF21CE"/>
</g>
<defs>
<filter id="filter0_df_2_6" x="-1" y="0.4" width="26" height="26.6" filterUnits="userSpaceOnUse" color-interpolation-filters="sRGB">
<feFlood flood-opacity="0" result="BackgroundImageFix"/>
<feColorMatrix in="SourceAlpha" type="matrix" values="0 0 0 0 0 0 0 0 0 0 0 0 0 0 0 0 0 0 127 0" result="hardAlpha"/>
<feOffset dy="4"/>
<feGaussianBlur stdDeviation="2"/>
<feComposite in2="hardAlpha" operator="out"/>
<feColorMatrix type="matrix" values="0 0 0 0 0 0 0 0 0 0 0 0 0 0 0 0 0 0 0.25 0"/>
<feBlend mode="normal" in2="BackgroundImageFix" result="effect1_dropShadow_2_6"/>
<feBlend mode="normal" in="SourceGraphic" in2="effect1_dropShadow_2_6" result="shape"/>
<feGaussianBlur stdDeviation="0.3" result="effect2_foregroundBlur_2_6"/>
</filter>
</defs>
</svg>
